<?xml version="1.0" encoding="UTF-8"?>
<svg version="1.1" xmlns="http://www.w3.org/2000/svg" width="48" height="48">
<path d="M0 0 C0.8245166 -0.00478363 1.6490332 -0.00956726 2.49853516 -0.01449585 C4.23667313 -0.01788872 5.97487544 -0.00872903 7.71289062 0.01220703 C10.36733825 0.03898521 13.01755825 0.01244254 15.671875 -0.01953125 C17.36459263 -0.01622704 19.05730763 -0.00982056 20.75 0 C21.93456787 -0.01518173 21.93456787 -0.01518173 23.14306641 -0.03067017 C27.11276955 0.05339275 28.99170918 0.40801499 32.37255859 2.66650391 C35.0441572 6.66575868 35.09944932 9.57732793 35.0390625 14.2890625 C35.04384613 15.1135791 35.04862976 15.9380957 35.05355835 16.78759766 C35.05695122 18.52573563 35.04779153 20.26393794 35.02685547 22.00195312 C35.00007729 24.65640075 35.02661996 27.30662075 35.05859375 29.9609375 C35.05528954 31.65365513 35.04888306 33.34637013 35.0390625 35.0390625 C35.04918365 35.82877441 35.05930481 36.61848633 35.06973267 37.43212891 C34.98566975 41.40183205 34.63104751 43.28077168 32.37255859 46.66162109 C28.37330382 49.3332197 25.46173457 49.38851182 20.75 49.328125 C19.5132251 49.33530045 19.5132251 49.33530045 18.25146484 49.34262085 C16.51332687 49.34601372 14.77512456 49.33685403 13.03710938 49.31591797 C10.38266175 49.28913979 7.73244175 49.31568246 5.078125 49.34765625 C3.38540737 49.34435204 1.69269237 49.33794556 0 49.328125 C-0.78971191 49.33824615 -1.57942383 49.34836731 -2.39306641 49.35879517 C-6.36276955 49.27473225 -8.24170918 48.92011001 -11.62255859 46.66162109 C-14.2941572 42.66236632 -14.34944932 39.75079707 -14.2890625 35.0390625 C-14.29384613 34.2145459 -14.29862976 33.3900293 -14.30355835 32.54052734 C-14.30695122 30.80238937 -14.29779153 29.06418706 -14.27685547 27.32617188 C-14.25007729 24.67172425 -14.27661996 22.02150425 -14.30859375 19.3671875 C-14.30528954 17.67446987 -14.29888306 15.98175487 -14.2890625 14.2890625 C-14.29918365 13.49935059 -14.30930481 12.70963867 -14.31973267 11.89599609 C-14.23566975 7.92629295 -13.88104751 6.04735332 -11.62255859 2.66650391 C-7.62330382 -0.0050947 -4.71173457 -0.06038682 0 0 Z " fill="#DFE5EA" transform="translate(13.625,-0.6640625)"/>
<path d="M0 0 C2.0625 0.4375 2.0625 0.4375 4 1 C3.38169084 5.2932314 1.8527927 8.56811477 -0.16015625 12.39453125 C-0.46948593 12.98674973 -0.77881561 13.5789682 -1.09751892 14.18913269 C-2.07996017 16.06674598 -3.07106248 17.93962421 -4.0625 19.8125 C-4.73300053 21.0901913 -5.4029286 22.36818318 -6.07226562 23.64648438 C-7.70823288 26.76782916 -9.35199595 29.88499023 -11 33 C-15.1719713 32.29611201 -17.19527166 31.34339082 -20.3125 28.4375 C-21.00988281 27.79683594 -21.70726562 27.15617187 -22.42578125 26.49609375 C-22.94527344 26.00238281 -23.46476562 25.50867188 -24 25 C-24.226875 25.639375 -24.45375 26.27875 -24.6875 26.9375 C-25.83134832 29.60647942 -27.03938915 32.17329846 -28.375 34.75 C-28.97441406 35.91789062 -28.97441406 35.91789062 -29.5859375 37.109375 C-31 39 -31 39 -33.1640625 39.765625 C-33.76992188 39.84296875 -34.37578125 39.9203125 -35 40 C-36.06167499 37.39026689 -36.2490519 35.63209033 -35.20947266 32.99365234 C-33.98679785 30.67144613 -32.67540811 28.43018879 -31.3125 26.1875 C-30.86455078 25.39923828 -30.41660156 24.61097656 -29.95507812 23.79882812 C-29.51228516 23.05439453 -29.06949219 22.30996094 -28.61328125 21.54296875 C-28.20891846 20.86258545 -27.80455566 20.18220215 -27.38793945 19.48120117 C-26.92991943 18.99240479 -26.47189941 18.5036084 -26 18 C-22 18 -22 18 -20.078125 19.53125 C-19.17320313 20.50578125 -19.17320313 20.50578125 -18.25 21.5 C-17.63640625 22.1496875 -17.0228125 22.799375 -16.390625 23.46875 C-15.70226563 24.22671875 -15.70226563 24.22671875 -15 25 C-12.81596301 22.20857521 -11.0223429 19.38501505 -9.3359375 16.26953125 C-8.85382812 15.38458984 -8.37171875 14.49964844 -7.875 13.58789062 C-7.38 12.67201172 -6.885 11.75613281 -6.375 10.8125 C-5.38433538 8.98485079 -4.39222586 7.15798379 -3.3984375 5.33203125 C-2.74367432 4.12123901 -2.74367432 4.12123901 -2.07568359 2.88598633 C-1 1 -1 1 0 0 Z " fill="#DC384D" transform="translate(40,4)"/>
<path d="M0 0 C3.83275898 1.50572674 5.91482075 3.44747239 8 7 C8.03677157 9.83141109 7.57011307 12.19694407 7 15 C4.36 15 1.72 15 -1 15 C-1.33 12.69 -1.66 10.38 -2 8 C-2.99 8.495 -2.99 8.495 -4 9 C-2.94124926 5.59687262 -1.99097846 2.98646769 0 0 Z " fill="#DCDBE1" transform="translate(16,29)"/>
<path d="M0 0 C0.33 0.66 0.66 1.32 1 2 C3.64 2 6.28 2 9 2 C9 4.64 9 7.28 9 10 C6.36 10 3.72 10 1 10 C0.67 8.35 0.34 6.7 0 5 C-0.99 5.495 -0.99 5.495 -2 6 C-1.34 4.02 -0.68 2.04 0 0 Z " fill="#CFD4DB" transform="translate(35,23)"/>
<path d="M0 0 C2.64 0 5.28 0 8 0 C8 2.64 8 5.28 8 8 C5.36 8 2.72 8 0 8 C0 5.36 0 2.72 0 0 Z " fill="#CDD7DE" transform="translate(4,15)"/>
<path d="M0 0 C2.64 0 5.28 0 8 0 C8 2.64 8 5.28 8 8 C5.36 8 2.72 8 0 8 C0 5.36 0 2.72 0 0 Z " fill="#CDD7DD" transform="translate(25,4)"/>
<path d="M0 0 C2.64 0 5.28 0 8 0 C8 2.64 8 5.28 8 8 C5.36 8 2.72 8 0 8 C0 5.36 0 2.72 0 0 Z " fill="#CDD7DD" transform="translate(15,4)"/>
<path d="M0 0 C2.64 0 5.28 0 8 0 C8.04241723 2.33294775 8.04092937 4.66702567 8 7 C7 8 7 8 3.4375 8.0625 C2.303125 8.041875 1.16875 8.02125 0 8 C0 5.36 0 2.72 0 0 Z " fill="#CCD6DD" transform="translate(36,36)"/>
<path d="M0 0 C1.134375 0.020625 2.26875 0.04125 3.4375 0.0625 C3.4375 2.7025 3.4375 5.3425 3.4375 8.0625 C0.7975 8.0625 -1.8425 8.0625 -4.5625 8.0625 C-4.60491723 5.72955225 -4.60342937 3.39547433 -4.5625 1.0625 C-3.5625 0.0625 -3.5625 0.0625 0 0 Z " fill="#CCD6DD" transform="translate(8.5625,3.9375)"/>
<path d="M0 0 C1.32 0.33 2.64 0.66 4 1 C4 3.64 4 6.28 4 9 C1.36 9 -1.28 9 -4 9 C-4 6.69 -4 4.38 -4 2 C-2.68 2 -1.36 2 0 2 C0 1.34 0 0.68 0 0 Z " fill="#CDD4DB" transform="translate(29,35)"/>
<path d="M0 0 C2.31 0 4.62 0 7 0 C7 2.64 7 5.28 7 8 C4.69 8 2.38 8 0 8 C0 5.36 0 2.72 0 0 Z " fill="#CCD6DD" transform="translate(15,36)"/>
<path d="M0 0 C2.31 0 4.62 0 7 0 C7.1875 3.375 7.1875 3.375 7 7 C6.01 7.66 5.02 8.32 4 9 C2 7.875 2 7.875 0 6 C-0.25 2.8125 -0.25 2.8125 0 0 Z " fill="#CCD3DA" transform="translate(15,15)"/>
<path d="M0 0 C2.64 0 5.28 0 8 0 C6.7508258 3.45925163 5.32472205 6.14693203 3 9 C2.01 8.67 1.02 8.34 0 8 C0 5.36 0 2.72 0 0 Z " fill="#CED3DA" transform="translate(4,25)"/>
<path d="M0 0 C0.33 0.66 0.66 1.32 1 2 C1.66 2 2.32 2 3 2 C3 4.64 3 7.28 3 10 C0.36 10.33 -2.28 10.66 -5 11 C-1.85714286 3.57142857 -1.85714286 3.57142857 0 0 Z " fill="#CFD0D8" transform="translate(41,12)"/>
<path d="M0 0 C2.64 0 5.28 0 8 0 C6.68 2.64 5.36 5.28 4 8 C2.68 7.67 1.36 7.34 0 7 C0 4.69 0 2.38 0 0 Z " fill="#CCD0D8" transform="translate(26,15)"/>
<path d="M0 0 C3.875 1.75 3.875 1.75 5 4 C2.69 4 0.38 4 -2 4 C-1.34 2.68 -0.68 1.36 0 0 Z " fill="#CEC1CA" transform="translate(16,29)"/>
</svg>
